# xmcd CD database file
#
# Track frame offsets:
#	150
#	50492
#	85722
#	140310
#	182445
#	229630
#	268332
#	323317
#
# Disc length: 4675 seconds
#
# Revision: 0
# Processed by: cddbd v1.5.2PL0 Copyright (c) Steve Scherf et al.
# Submitted via: CDex 1.77
#
DISCID=5d124108
DTITLE=Bobby Wellins Quartet - Don't Worry 'Bout Me
DYEAR=1996
DGENRE=Jazz
TTITLE0=I Concentrate On You
TTITLE1=My Old Flame
TTITLE2=In Your Own Sweet Way
TTITLE3=Lover Man
TTITLE4=I'm Wishing
TTITLE5=Don't Worry 'Bout Me
TTITLE6=How Deep Is The Ocean
TTITLE7=Tracery
EXTD=YEAR: 1996
EXTT0=
EXTT1=
EXTT2=
EXTT3=
EXTT4=
EXTT5=
EXTT6=
EXTT7=
PLAYORDER=
